<svg width="454" height="512" viewBox="0 0 454 512" fill="none" xmlns="http://www.w3.org/2000/svg">
<path d="M374.221 313.792V219.819C374.221 215.659 371.021 213.419 367.821 215.659L271.757 271.061C269.667 272.192 267.597 275.392 267.597 278.592V389.547C267.597 393.877 270.797 395.947 273.997 393.877L355 346.944L434.083 392.725L228.024 511.68L227.555 512L226.915 511.68L87.48 430.997L21.3466 392.576L99.96 346.944L181.133 393.856C184.333 395.947 187.533 392.747 186.424 388.565V277.461C186.424 274.261 185.315 272.171 182.093 270.101L86.0293 214.549C83.9387 213.419 79.6293 215.659 79.6293 218.88V312.704L0.695984 358.656V119.595L208.824 0V91.7333L127.651 138.816C124.451 139.776 124.451 145.216 127.651 146.176L223.715 201.728C225.955 202.859 229.155 203.819 232.355 201.728L328.419 146.176C331.619 145.216 331.619 140.885 328.419 138.816L247.245 91.7333V0L453.304 119.595V358.144L374.221 313.792Z" fill="#A855F7"/>
</svg>
